<?xml version="1.0" standalone="no"?>
<!DOCTYPE svg PUBLIC "-//W3C//DTD SVG 20010904//EN"
 "http://www.w3.org/TR/2001/REC-SVG-20010904/DTD/svg10.dtd">
<svg version="1.0" xmlns="http://www.w3.org/2000/svg"
 width="1181.000000pt" height="886.000000pt" viewBox="0 0 1181.000000 886.000000"
 preserveAspectRatio="xMidYMid meet">

<g transform="translate(0.000000,886.000000) scale(0.100000,-0.100000)"
fill="#000000" stroke="none">
<path d="M5853 8353 c-37 -21 -2668 -2517 -2677 -2539 -3 -9 -6 -36 -6 -61 0
-36 6 -50 29 -74 l29 -29 171 0 c156 0 171 -2 171 -17 1 -146 43 -852 55 -923
46 -281 141 -546 281 -787 370 -638 1023 -1063 1756 -1142 189 -21 190 -18 23
57 -816 368 -1405 833 -1634 1288 -92 185 -121 291 -128 479 -4 115 -2 157 15
235 40 195 128 364 260 502 179 187 383 288 640 318 331 39 687 -108 894 -368
32 -40 58 -76 58 -80 0 -4 -34 -22 -75 -40 -226 -102 -422 -294 -536 -527
-180 -366 -151 -775 80 -1156 130 -215 340 -445 577 -633 l108 -86 61 0 c56 0
186 13 263 26 l33 5 -82 59 c-246 175 -539 446 -666 615 -205 272 -293 524
-263 748 23 169 82 288 200 407 87 87 172 140 285 177 103 34 282 38 385 9
178 -49 327 -162 421 -317 18 -30 34 -56 36 -58 1 -2 32 28 68 67 123 133 286
210 465 219 409 23 740 -290 740 -697 0 -47 -4 -102 -9 -122 -5 -21 -7 -38 -6
-38 8 0 96 164 138 257 59 128 108 271 141 409 52 218 58 292 63 717 l5 397
180 0 180 0 29 29 c25 25 29 37 29 81 0 51 -2 54 -62 115 -104 105 -2581 2456
-2604 2472 -36 23 -86 26 -121 6z m-398 -1728 c171 -45 295 -170 340 -342 67
-256 -112 -521 -381 -564 -82 -13 -173 -2 -250 32 -192 82 -310 298 -274 499
48 267 310 441 565 375z m1399 -1007 c164 -54 278 -190 307 -368 45 -271 -178
-530 -456 -530 -279 0 -503 261 -457 531 50 292 327 459 606 367z"/>
<path d="M7242 4355 c-82 -25 -151 -91 -183 -175 -37 -97 -35 -206 6 -346 6
-19 2 -22 -58 -28 -79 -8 -168 -36 -262 -83 -165 -84 -259 -172 -327 -309 -38
-77 -42 -94 -46 -175 -4 -80 -2 -94 22 -143 14 -29 50 -75 78 -102 l52 -49 8
43 c10 58 39 103 101 156 75 63 152 108 432 249 138 69 293 154 345 188 229
151 323 309 291 490 -37 207 -261 346 -459 284z"/>
<path d="M9272 2730 c-59 -36 -62 -54 -62 -414 l0 -325 -64 48 c-200 152 -484
127 -657 -57 -106 -112 -149 -226 -149 -395 0 -173 49 -303 159 -420 176 -187
474 -204 654 -38 24 23 47 41 49 41 3 0 8 -18 12 -39 12 -79 90 -133 158 -109
59 21 70 108 18 140 -20 13 -20 19 -20 717 l0 705 27 28 c77 81 -26 178 -125
118z m-337 -765 c141 -37 238 -149 265 -308 16 -88 -1 -185 -46 -276 -112
-224 -371 -269 -536 -93 -212 227 -122 615 159 681 57 14 93 13 158 -4z"/>
<path d="M2853 2135 c-105 -23 -189 -71 -274 -155 -121 -119 -169 -235 -169
-407 0 -218 122 -415 315 -508 92 -44 151 -57 260 -57 311 -1 565 255 565 569
0 157 -53 287 -164 398 -146 146 -335 203 -533 160z m264 -175 c203 -70 317
-292 255 -497 -57 -186 -228 -304 -425 -291 -146 9 -276 99 -340 236 -30 62
-32 75 -32 172 0 93 3 111 27 163 91 193 312 286 515 217z"/>
<path d="M3993 2135 c-113 -32 -190 -89 -238 -177 -41 -75 -41 -161 0 -237 51
-92 137 -151 342 -235 135 -55 187 -86 213 -129 29 -47 25 -74 -18 -117 -87
-87 -282 -94 -418 -14 -22 13 -54 24 -71 24 -56 0 -91 -67 -63 -121 13 -24
126 -81 206 -105 77 -22 211 -22 289 1 170 49 255 142 255 276 -1 145 -97 241
-343 345 -155 65 -181 79 -222 119 -64 64 -39 142 60 190 94 46 220 34 317
-30 61 -41 115 -31 138 25 26 62 -35 125 -167 172 -76 27 -209 33 -280 13z"/>
<path d="M6723 2130 c-36 -21 -63 -66 -63 -103 0 -39 -12 -39 -49 -3 -46 44
-121 81 -202 101 -266 62 -523 -95 -605 -370 -22 -74 -25 -236 -5 -315 45
-184 174 -342 323 -396 163 -59 357 -25 479 84 47 42 59 44 59 9 0 -91 122
-156 185 -97 34 32 34 82 0 116 l-25 25 0 403 0 403 25 23 c53 50 16 140 -57
140 -18 0 -47 -9 -65 -20z m-282 -186 c72 -32 140 -103 177 -182 20 -45 27
-77 30 -148 11 -235 -124 -416 -321 -431 -162 -13 -296 87 -357 268 -28 83
-24 215 9 301 24 61 92 144 145 177 89 55 214 61 317 15z"/>
<path d="M1167 2120 c-13 -11 -28 -31 -31 -45 -7 -29 15 -79 39 -88 13 -6 15
-82 15 -667 l0 -661 -27 -23 c-35 -30 -37 -86 -5 -119 33 -32 101 -31 137 3
52 48 55 66 55 370 0 180 4 280 10 280 6 0 10 -4 10 -9 0 -20 123 -100 186
-121 83 -28 204 -30 289 -6 158 46 281 164 345 331 31 82 39 251 16 349 -52
220 -218 384 -423 418 -134 22 -284 -24 -377 -117 -24 -25 -47 -45 -50 -45 -3
0 -6 14 -6 30 0 100 -113 175 -183 120z m670 -174 c200 -93 285 -393 168 -591
-150 -255 -519 -224 -626 53 -44 113 -28 275 38 389 33 58 123 138 175 156 70
25 183 21 245 -7z"/>
<path d="M4666 2118 c-38 -35 -39 -87 -2 -122 l25 -22 3 -320 c4 -297 5 -323
25 -376 44 -118 130 -206 240 -249 72 -28 221 -37 302 -19 58 13 145 52 156
70 3 5 11 10 17 10 18 0 1 -116 -26 -168 -30 -58 -58 -85 -116 -111 -103 -44
-230 -32 -364 34 -88 43 -118 44 -157 6 -64 -65 -22 -130 121 -188 279 -112
570 -40 675 167 51 101 55 145 55 664 l0 479 25 23 c54 50 16 144 -57 144 -39
0 -91 -30 -110 -62 -10 -17 -14 -107 -18 -358 l-5 -335 -28 -57 c-46 -94 -127
-145 -246 -155 -134 -11 -242 45 -296 152 l-30 60 -5 335 c-5 311 -6 337 -25
364 -37 55 -116 72 -159 34z"/>
<path d="M7140 2112 c-38 -39 -40 -83 -5 -118 l25 -25 0 -397 0 -397 -25 -24
c-32 -29 -32 -71 -2 -107 19 -21 31 -26 66 -26 51 1 84 21 108 65 16 28 19 71
23 357 l5 325 27 51 c55 104 148 156 279 155 139 0 226 -47 276 -149 l28 -57
5 -325 c4 -286 7 -329 23 -357 24 -44 57 -64 108 -65 35 0 47 5 66 26 30 35
29 77 -1 107 -24 24 -24 25 -29 309 -5 305 -11 350 -63 457 -33 69 -127 155
-198 182 -180 67 -362 46 -473 -54 l-49 -43 -17 48 c-19 54 -51 80 -108 87
-33 5 -42 1 -69 -25z"/>
<path d="M9653 2130 c-47 -19 -58 -92 -19 -129 l24 -23 4 -301 c4 -271 7 -308
25 -364 65 -198 217 -295 457 -295 110 0 236 47 285 106 20 24 28 20 41 -18
22 -69 95 -107 156 -81 58 24 68 95 18 134 l-24 19 0 401 c0 352 2 402 15 408
24 9 46 59 39 88 -8 32 -49 65 -81 65 -44 0 -93 -31 -113 -71 -19 -35 -20 -61
-20 -342 0 -364 -4 -385 -84 -462 -69 -68 -135 -90 -255 -83 -140 8 -222 56
-268 156 -15 32 -18 85 -23 367 -4 292 -7 334 -23 363 -32 58 -97 85 -154 62z"/>
</g>
</svg>
