<svg width="1272" height="1248" viewBox="0 0 1272 1248" fill="none" xmlns="http://www.w3.org/2000/svg">
<rect width="1272" height="1248" fill="white"/>
<path d="M678.5 392L687 377C701.833 389.833 731.6 415.5 732 415.5C732.4 415.5 769.167 434.5 787.5 444V459V462L783.5 474L771 488L755 500.5L725 507.5L702.5 500.5H700L698 494.5L694.5 484.5L690 477.5V469L687 464H671.5L670 459L671.5 454.5L675 433L680.5 415.5L678.5 392Z" fill="white"/>
<path d="M638.301 217L635.598 217.086C629.545 217.172 626.324 219.362 621.476 222.887L619.598 224.273C614.016 228.377 608.582 232.634 603.223 237.023C598.52 240.883 593.801 244.698 588.973 248.398C585.336 251.172 581.707 253.954 578.102 256.77C567.618 264.959 557.046 273.017 546.357 280.936C538.892 286.464 531.527 292.066 524.348 297.961C519.735 301.752 515.083 305.46 510.297 309.031C504.443 313.374 498.648 317.761 492.973 322.336C488.148 326.229 483.293 330.078 478.397 333.88C472.918 338.127 467.434 342.363 462.035 346.711C458.901 349.235 455.736 351.713 452.543 354.163C448.135 357.538 443.739 360.923 439.41 364.398C436.015 367.131 432.602 369.839 429.173 372.53L428.232 373.268C424.708 376.03 421.184 378.792 417.688 381.59C413.752 384.758 409.799 387.895 405.788 390.966C400.446 395.051 395.154 399.188 389.91 403.398C385.077 407.281 380.229 411.139 375.348 414.961C371.781 417.752 368.225 420.552 364.699 423.395C354.935 431.27 345.008 438.9 334.856 446.27L332.254 448.152C330.536 449.402 328.817 450.65 327.098 451.898C322.315 455.317 317.524 458.397 314.348 463.461C313.593 467.243 314.131 470.811 315.348 474.461C318.087 477.925 319.397 479.342 323.848 479.898C329.689 479.168 333.209 476.99 337.664 473.323C339.026 472.18 340.393 471.043 341.764 469.912L343.934 468.121C347.516 465.147 351.115 462.195 354.727 459.257L356.785 457.586L357.049 457.371C360.267 454.753 363.484 452.136 366.754 449.582C371.855 445.668 376.829 441.618 381.785 437.523C385.567 434.396 389.343 431.264 393.176 428.199C397.353 424.9 401.443 421.531 405.463 418.043L405.768 417.778C409.54 414.503 413.288 411.248 417.301 408.266C422.099 404.88 426.586 401.446 430.91 397.461C434.274 394.331 437.664 391.352 441.285 388.523C444.065 386.358 446.663 384.161 449.219 381.73C451.218 379.794 453.232 377.885 455.305 376.027C466.114 366.911 475.833 366.698 489.348 367.461V369.461C491.476 372.653 493.855 374.952 496.91 377.211C503.767 382.228 512.476 387.056 515.836 395.219C517.331 401.769 517.234 408.358 514.348 414.461C511.763 418.293 509.787 420.104 505.348 421.461C502.571 417.296 499.475 414.616 495.117 412.25C487.852 408.993 480.052 408.013 472.348 410.461C464.318 414.318 458.48 420.307 454.91 428.461C451.739 437.548 453.696 443.2 457.254 451.898L458.348 454.461C455.54 454.07 453.521 453.564 451.066 452.113L448.848 450.398L446.629 448.738C439.319 441.441 438.614 434.771 438.598 424.668C438.598 422.504 438.576 420.341 438.547 418.178C438.526 416.805 438.507 415.432 438.488 414.059C438.479 411.561 439.223 408.336 437.348 406.461C434.848 406.336 434.848 406.336 432.348 406.461C431.348 407.461 431.348 407.461 430.304 408.964L429.02 410.883C428.045 412.325 427.071 413.768 426.098 415.211L424.648 417.383L423.207 419.508C422.3 420.858 421.342 422.174 420.348 423.461L417.788 425.589C415.192 428.644 414.76 430.234 414.702 434.184L414.746 436.427C414.733 438.975 414.727 441.52 414.752 444.068C414.771 445.935 414.781 447.801 414.782 449.668C414.775 454.752 414.785 459.834 414.819 464.918C414.855 470.32 414.871 475.722 414.877 481.124C414.888 491.324 414.921 501.524 414.971 511.724C415.028 523.428 415.063 535.132 415.089 546.837C415.143 572.045 415.231 597.253 415.348 622.461C418.348 622.461 418.348 622.461 420.004 621.438C422.988 619.25 425.564 617.652 429.193 616.767L432.129 616.297L435.1 615.806L437.348 615.461C437.474 601.209 437.598 586.958 437.721 572.706C437.781 565.75 437.841 558.794 437.902 551.838C438.157 523.064 438.448 494.29 438.356 465.513L438.348 463.461L440.779 464.754L444.004 466.426C449.426 469.268 454.245 470.887 460.348 469.461C462.794 467.514 463.737 466.479 466.926 466.387L469.598 466.773C471.183 466.987 472.768 467.211 474.348 467.461L473.863 469.852C472.103 482.172 471.345 496.838 478.973 507.273C481.38 510.175 481.38 510.175 482.191 512.855C482.579 515.523 482.579 515.523 481.09 517.828C475.037 525.958 470.978 534.868 470.008 545.016C469.934 551.887 470.584 555.3 475.348 560.461C477.973 561.398 477.973 561.398 480.348 561.461C482.348 559.461 482.348 559.461 482.875 557.43C484.522 547.518 487.311 539.063 491.945 530.125C492.822 528.461 493.686 526.79 494.531 525.109L495.348 523.461C500.898 529.185 507.053 534.048 514.59 536.812C523.706 538.956 532.707 538.005 540.777 533.344C555.308 522.7 560.05 506.484 563.684 489.652L564.348 486.461L566.981 486.312L570.473 486.086C575.107 485.802 579.013 485.152 583.348 483.461C587.555 480.756 590.798 477.274 592.348 472.461C592.88 466.812 592.219 463.384 589.553 458.412L589.387 458.12C585.665 451.563 582.554 446.082 583.906 438.207C586.128 429.844 586.904 422.1 586.348 413.461C583.975 396.513 574.951 378.489 561.238 367.852L559.348 366.461C540.388 351.366 519.819 348.924 496.265 348.489L494.348 348.461C495.093 345.255 495.093 345.255 497.988 343.547C509.098 336.649 519.541 329.134 529.805 321.039C533.445 318.164 537.111 315.326 540.796 312.51L542.91 310.898L547.148 307.664C549.918 305.552 552.687 303.437 555.453 301.32C569.739 290.386 584.005 279.423 598.414 268.652C600.632 266.996 602.848 265.337 605.063 263.676C606.407 262.666 607.753 261.657 609.098 260.648L609.639 260.244C612.954 257.764 616.27 255.285 619.559 252.771L621.785 251.062C623.223 249.966 624.66 248.87 626.098 247.773L628.12 246.206L630.02 244.762C631.793 243.397 633.261 242.494 635.357 241.697C639.183 242.163 639.183 242.163 642.321 244.725L644.223 246.211C646.267 247.761 648.308 249.315 650.334 250.888L652.348 252.461C655.897 255.22 659.436 257.991 662.961 260.781C671.11 267.232 679.332 273.501 687.848 279.461C695.761 284.998 703.457 290.757 711.005 296.784C719.226 303.365 727.615 309.54 736.34 315.441L739.348 317.461L737.406 317.793L734.785 318.273C722.972 320.377 710.407 327.459 700.573 334.252L698.785 335.523C691.77 340.487 685.966 346.369 680.77 353.206L679.285 355.211C677.268 357.936 675.282 360.677 673.348 363.461C662.881 379.4 660.988 397.498 664.348 416.023C666.402 427.121 665.721 433.579 660.348 443.586C657.959 447.716 655.602 451.437 655 456.233C654.939 462.288 655.799 465.346 659.848 470.062C663.838 473.783 663.838 473.783 677.188 473.531L679.348 473.461C678.894 486.383 684.472 502.235 693.281 511.918C699.355 516.453 704.328 517.926 711.934 517.861L714.973 517.773C719.957 517.726 724.854 517.666 729.797 516.988C732.039 516.525 734.277 516.09 736.535 515.711C740.205 515.022 740.205 515.022 741.889 516.794C743.348 518.461 743.348 518.461 746.492 520.879C757.736 529.332 763.435 535.4 766.488 549.461C767.34 553.489 768.332 557.471 769.348 561.461C771.22 562.008 771.22 562.008 773.348 562.461C777.137 561.065 779.594 558.725 782.148 555.668C784.402 551.521 783.923 547.03 783.348 542.461C779.542 531.043 775.282 523.136 765.66 515.773C762.338 513.301 759.739 510.891 757.348 507.461H759.348C771.173 500.837 781.02 491.797 787.91 480.07L789.348 477.461C793.633 470.165 793.814 463.842 793.348 455.461L790.828 455.32L787.535 455.211C784.266 455.07 784.266 455.07 781.348 455.461C778.838 457.752 778.838 457.752 776.206 464.791C774.255 470.065 772.449 475.451 768.859 479.855L767.348 481.461C764.234 484.813 761.038 487.75 757.348 490.461C742.788 498.586 721.52 504.29 704.977 499.82C703.105 498.434 703.105 498.434 701.863 495.641L700.598 492.336C699.835 490.383 699.081 488.426 698.348 486.461C703.545 486.643 708.77 487.288 713.348 484.461C716.496 481.482 717.296 480.079 717.66 475.711C717.348 472.461 717.348 472.461 716.348 471.461C712.717 471.859 709.181 472.494 705.602 473.215L701.91 474.023L698.164 474.84L695.348 475.461L695.051 472.723L694.598 469.148C694.188 465.701 694.033 463.3 691.816 460.586C688.797 459.21 686.246 458.997 682.953 458.842L680.598 458.773C679.04 458.706 677.483 458.64 675.926 458.574L672.348 458.461C672.753 455.623 673.278 453.581 674.726 451.086C681.906 439.465 682.083 429.138 682.097 415.75C682.098 412.507 682.12 409.264 682.148 406.021C682.169 403.951 682.189 401.88 682.207 399.809L682.21 396.886L682.222 394.153C682.224 390.058 682.662 386.297 684.102 382.441L684.91 380.648L686.348 377.461C692.016 387.678 697.571 397.637 705.659 406.175C733.673 434.794 771.354 448.062 811.023 448.807L814.223 448.836L817.267 448.878L820.152 448.859C822.683 448.849 822.683 448.849 825.348 448.461L832.348 445.461V616.461C842.46 617.821 842.46 617.821 847.785 620.523C850.315 621.971 852.511 622.795 855.348 623.461C855.539 599.126 855.716 574.791 855.872 550.456C855.947 538.628 856.024 526.8 856.118 514.972C856.202 504.581 856.279 494.19 856.342 483.799C856.373 478.314 856.403 472.828 856.45 467.343C856.498 462.092 856.542 456.84 856.568 451.588C856.576 449.657 856.586 447.725 856.596 445.794L856.597 445.724C856.627 443.047 856.657 440.372 856.666 437.696L856.671 435.263C856.73 431.728 857.15 428.546 854.963 425.588L853.348 424.461C847.862 419.816 842.148 415.51 836.258 411.395C834.348 410.461 834.348 410.461 831.348 411.461L830.348 435.461C824.348 431.461 824.348 431.461 821.398 430.963L818.305 430.957L814.83 430.908C807.73 430.89 800.604 430.779 793.522 430.25C765.757 427.351 736.992 414.639 719.051 392.656L717.348 390.461C708.912 379.688 702.803 369.577 702.348 355.461C712.072 345.736 725.165 340.253 738.098 336.211C742.221 335.012 745.487 334.244 748.707 331.312L750.348 329.461C754.773 328.797 757.528 330.278 761.172 332.647L763.035 333.965L765.134 335.446L767.348 337.023C769.644 338.657 771.938 340.294 774.228 341.938L776.348 343.461C784.926 349.588 800.348 363.461 800.348 363.461C800.348 363.461 811.602 372.667 818.848 378.523L943.5 475C943.5 475 950.7 481.859 954.348 477.461C957.995 473.062 958.779 470.034 958.684 464.512C958.161 461.321 956.646 459.697 954.168 457.734C945.431 451.58 936.811 445.273 928.473 438.586C925.104 435.87 921.724 433.17 918.325 430.492L916.535 429.086C913.609 426.784 910.682 424.483 907.727 422.219C901.879 417.77 896.097 413.283 890.447 408.584C884.011 403.225 877.507 397.977 870.865 392.874L868.035 390.711L865.303 388.615L862.734 386.664L656.785 227.398C651.233 222.675 645.698 218.119 638.301 217Z" fill="#152534"/>
<path d="M601.211 573.42C606.787 575.573 606.787 575.573 608.211 578.42C608.642 582.293 608.528 583.945 606.336 587.233C603.505 590.148 601.857 590.622 597.899 590.795C594.027 590.777 593.394 590.569 590.211 587.983C589.551 587.137 588.891 586.292 588.211 585.42C587.881 585.09 587.551 584.76 587.211 584.42C586.861 580.709 586.732 578.271 588.586 574.983C592.675 572.549 596.574 572.8 601.211 573.42Z" fill="#0D1A27"/>
<path d="M650.211 577.42C653.903 579.303 654.807 580.463 656.399 584.233C656.157 588.342 654.831 590.129 652.024 593.053C650.211 594.42 650.211 594.42 646.711 595.17C641.61 594.077 638.835 591.783 635.836 587.42C635.05 584.905 634.875 583.04 635.211 580.42C638.677 575.534 644.873 576.779 650.211 577.42Z" fill="#0D1C27"/>
<path d="M609.211 613.42C619.606 614.41 619.606 614.41 630.211 615.42C629.211 619.42 629.211 619.42 627.711 621.108C623.971 623.072 620.426 623.654 616.211 623.42C612.711 621.858 612.711 621.858 610.211 619.42C609.881 617.44 609.551 615.46 609.211 613.42Z" fill="#111D29"/>
<path d="M657.559 503.5C668.769 512.935 676.404 524.123 680.621 538.125C681.072 539.523 681.072 539.523 681.531 540.949C683.831 549.475 683.936 557.897 683.996 566.688C684.01 567.926 684.024 569.164 684.038 570.439C684.032 571.616 684.026 572.792 684.02 574.004C684.016 575.062 684.013 576.119 684.009 577.209C683.565 580.545 682.648 582.455 680.621 585.125C678.141 585.613 678.141 585.613 675.434 585.438C674.533 585.392 673.631 585.347 672.703 585.301C672.016 585.243 671.329 585.185 670.621 585.125C669.155 580.545 668.511 576.983 668.621 572.125C667.58 572.027 666.538 571.929 665.465 571.828C643.821 569.636 620.33 564.56 605.621 547.125C603.903 544.825 602.268 542.477 600.621 540.125C599.961 539.795 599.301 539.465 598.621 539.125C598.353 540.321 598.085 541.518 597.809 542.75C594.143 553.678 584.705 563.848 574.621 569.125C562.287 574.942 562.287 574.942 555.621 573.125C554.796 572.444 553.971 571.764 553.121 571.062C550.737 568.911 550.737 568.911 547.621 568.562C544.485 568.953 544.485 568.953 541.746 571C539.153 574.814 538.905 577.215 539.121 581.746C539.88 585.359 541.717 586.981 544.621 589.125C548.044 590.837 551.991 590.418 555.773 590.551C558.621 591.125 558.621 591.125 560.363 592.734C561.956 595.761 562.854 598.778 563.809 602.062C567.796 614.814 574.618 626.478 586.594 632.992C599.853 639.806 615.102 641.601 629.559 637.5C639.522 634.154 639.522 634.154 646.797 627.09C647.591 624.78 648.134 622.518 648.621 620.125C650.778 611.565 653.751 603.9 660.184 597.625C664.513 595.736 668.621 595.263 673.305 594.812C676.641 594.121 678.914 592.89 681.798 591.123C684.886 589.433 688.151 588.677 691.559 587.875C692.223 587.702 692.888 587.53 693.572 587.352C701.121 585.506 708.736 585.013 715.621 589.125C721.558 594.276 725.84 600.849 727 608.684C727.754 625.452 718.811 638.663 708.098 650.527C702.087 656.928 695.164 661.753 687.496 666C683.43 668.321 680.826 670.991 677.809 674.562C672.637 680.543 667.083 684.351 659.621 687.125C656.23 687.301 656.23 687.301 653.621 687.125C653.749 681.1 655.78 678.161 659.586 673.59C661.765 670.951 663.756 668.221 665.746 665.438C666.763 664.051 666.763 664.051 667.801 662.637C668.839 661.204 669.858 659.757 670.816 658.27C674.022 653.651 678.398 652.462 683.422 650.527C695.918 645.05 705.455 634.653 710.621 622.125C711.585 618.144 713.594 610.953 712.621 610.125C711.648 609.297 711 609.5 710.621 610.125C710.474 610.368 710.209 611.527 709.996 612.25C708.238 615.927 705.817 618.598 702.621 621.125C701.961 621.125 701.301 621.125 700.621 621.125C701.822 616.321 703.436 612.266 705.816 607.922C706.825 605.997 706.825 605.014 706.621 603.125C705.88 596.245 695.224 603.894 689.621 608.125C686.729 610.955 684.161 613.978 681.621 617.125C680.622 618.313 679.622 619.501 678.621 620.688C677.631 621.894 677.631 621.894 676.621 623.125L674.594 622.953L670.094 612.453C670.094 612.453 668.647 611.56 667.621 612.125C666.247 612.881 666.661 614.624 666.184 615.875C665.917 616.571 665.65 617.267 665.375 617.984C663.826 622.381 663.558 625.928 663.734 630.621C663.765 631.903 663.795 633.185 663.826 634.506C663.891 637.178 663.987 639.843 664.1 642.514C664.344 655.761 659.43 667.195 650.621 677.125C635.335 690.71 616.113 692.264 596.621 691.125C581.512 689.702 568.273 683.677 556.621 674.125C555.721 673.401 554.822 672.676 553.895 671.93C548.604 667.451 543.706 662.916 541.621 656.125C541.455 652.195 541.854 648.66 543.621 645.125C546.742 645.714 548.527 646.61 550.898 648.707C551.495 649.227 552.091 649.747 552.705 650.283C553.317 650.829 553.928 651.375 554.559 651.938C555.775 653.007 556.993 654.076 558.211 655.145C558.794 655.657 559.376 656.169 559.977 656.697C574.577 669.375 591.275 675.564 610.617 674.645C622.972 673.62 634.703 668.855 643.059 659.5C646.697 655.084 647.884 651.905 647.621 646.125C646.973 646.392 646.324 646.659 645.656 646.934C641.82 648.439 637.945 649.817 634.059 651.188C633.304 651.456 632.549 651.725 631.771 652.002C630.674 652.39 630.674 652.39 629.555 652.785C628.895 653.019 628.236 653.252 627.556 653.492C612.429 658.437 595.343 655.185 581.285 648.551C564.176 639.117 552.924 625.973 546.371 607.625C544.031 604.282 541.852 604.087 538.035 603.012C531.974 600.785 527.856 596.268 525.184 590.5C521.791 581.637 521.588 574.16 525.434 565.453C528.89 558.677 533.453 555.519 540.621 553.125C541.281 553.125 541.941 553.125 542.621 553.125C542.642 551.944 542.642 551.944 542.664 550.738C543.452 532.746 552.323 517.819 565.096 505.478C591.786 481.804 629.706 483.081 657.559 503.5Z" fill="#112435"/>
<path d="M902.223 562.301C902.809 562.627 903.396 562.953 904 563.289C904.047 572.322 904.082 581.355 904.104 590.387C904.114 594.583 904.128 598.778 904.151 602.974C904.173 607.033 904.185 611.092 904.19 615.151C904.193 616.689 904.201 618.227 904.211 619.766C904.275 629.113 903.749 638.074 902 647.289C901.866 648.041 901.731 648.794 901.593 649.569C896.449 677.051 881.636 701.001 862.377 720.857C861.15 722.133 859.956 723.439 858.766 724.75C846.698 737.679 828.908 747.458 812 752.289C813.451 747.589 816.217 744.566 819.562 741.102C820.649 739.952 821.735 738.803 822.82 737.652C823.358 737.086 823.896 736.52 824.45 735.936C827.353 732.851 830.151 729.674 832.965 726.508C835.241 724.026 837.612 721.663 840 719.289C849.844 709.371 858.421 699.041 866 687.289C866.713 686.19 867.426 685.09 868.16 683.957C882.417 659.893 879.348 626.672 879.381 599.892C879.387 595.995 879.424 592.099 879.461 588.203C879.456 587.023 879.451 585.843 879.446 584.627C879.533 577.287 880.242 571.221 885.483 565.738C890.315 561.497 896.058 559.495 902.223 562.301Z" fill="#162634"/>
<path d="M378.12 562.121C383.615 564.953 386.906 569.473 389.13 575.15C390.172 578.791 390.332 581.817 390.336 585.601C390.34 586.288 390.343 586.975 390.347 587.683C390.354 589.168 390.356 590.652 390.355 592.137C390.354 594.503 390.367 596.868 390.384 599.234C390.43 605.958 390.455 612.682 390.461 619.406C390.466 623.53 390.491 627.654 390.527 631.779C390.536 633.334 390.539 634.889 390.534 636.445C390.487 650.537 392.73 663.677 398.706 676.597C399.048 677.346 399.391 678.095 399.744 678.866C406.156 692.356 415.794 702.752 426.09 713.401C429.46 716.908 432.766 720.476 436.081 724.035C440.154 728.408 444.288 732.696 448.527 736.908C450.39 738.785 452.16 740.725 453.893 742.722C454.738 743.689 454.738 743.689 455.6 744.676C459.081 748.9 459.081 748.9 459.081 752.472C442.486 748.724 426.618 738.075 414.374 726.609C412.352 724.726 410.277 722.975 408.143 721.222C398.252 712.547 390.748 701.712 384.081 690.472C383.403 689.359 382.724 688.245 382.026 687.097C363.938 656.188 363.891 621.936 364.018 587.285C364.023 584.866 364.028 582.448 364.032 580.029C364.043 574.177 364.059 568.325 364.081 562.472C368.226 560.399 373.765 560.736 378.12 562.121Z" fill="#192836"/>
<path d="M334.383 530.532C343.781 535.927 348.502 542.457 351.801 552.714C353.205 558.466 353.054 564.285 353.063 570.175C353.066 572.333 353.083 574.491 353.103 576.649C353.158 582.781 353.189 588.913 353.214 595.046C353.42 640.927 359.379 686.123 392.359 720.798C393.758 722.469 393.758 722.469 393.758 724.469C394.748 724.799 395.738 725.129 396.758 725.469C398.16 726.93 398.16 726.93 399.695 728.844C415.565 747.437 439.769 764.841 463.758 770.469C466.91 770.69 470.037 770.661 473.195 770.594C474.022 770.585 474.849 770.576 475.701 770.567C477.72 770.544 479.739 770.508 481.758 770.469C482.067 769.851 482.376 769.232 482.695 768.594C483.383 767.219 484.07 765.844 484.758 764.469C486.01 756.53 484.224 751.131 479.949 744.446C476.971 740.401 473.684 736.753 470.226 733.114C467.945 730.67 465.872 728.169 463.82 725.532C459.901 720.542 455.653 715.916 451.344 711.266C448.073 707.729 444.905 704.117 441.758 700.469C440.809 699.386 439.859 698.303 438.91 697.219C415.051 669.87 415.051 669.87 415.449 654.161C416.197 647.634 418.399 642.266 423.383 637.907C429.342 633.314 435.424 633.913 442.758 634.469C455.858 637.769 465.808 649.148 474.883 658.469C477.131 660.765 479.384 663.056 481.64 665.344C482.179 665.891 482.717 666.438 483.272 667.001C486.712 670.474 490.246 673.773 493.973 676.939C497.109 679.629 500.073 682.503 503.07 685.344C508.323 690.294 513.683 694.945 519.328 699.442C522.427 702.028 525.188 704.873 527.996 707.766C530.355 710.047 533.006 711.692 535.758 713.469C536.96 714.494 538.146 715.538 539.32 716.594C542.801 719.715 546.459 722.541 550.195 725.344C555.093 729.041 559.472 732.964 563.722 737.407C565.606 739.316 567.549 740.973 569.633 742.657C602.557 770.906 616.705 821.312 622.008 862.407C622.253 864.279 622.253 864.279 622.503 866.188C625.048 887.353 624.929 908.723 624.961 930.008C624.965 932 624.969 933.992 624.974 935.983C624.985 941.497 624.993 947.011 624.997 952.524C625.001 959.614 625.019 966.704 625.048 973.794C625.069 979.323 625.079 984.852 625.081 990.381C625.082 993.666 625.089 996.95 625.105 1000.24C625.122 1003.88 625.121 1007.52 625.114 1011.16C625.123 1012.24 625.133 1013.31 625.142 1014.42C625.11 1020.11 624.995 1024.23 620.758 1028.47C618.867 1028.74 618.867 1028.74 616.508 1028.84C615.739 1028.89 614.971 1028.94 614.18 1028.99C610.503 1028.2 609.112 1026.35 606.758 1023.47C605.582 1021.05 604.599 1018.79 603.695 1016.28C603.23 1015.05 602.764 1013.82 602.285 1012.55C602.042 1011.9 601.798 1011.25 601.547 1010.57C589.443 978.331 572.179 947.819 548.758 922.469C546.37 919.783 543.986 917.095 541.605 914.403C539.899 912.399 539.899 912.399 537.758 911.469C537.758 910.809 537.758 910.149 537.758 909.469C537.181 909.217 536.605 908.964 536.012 908.704C533.481 907.318 531.771 905.724 529.695 903.719C505.231 881.342 475.476 866.245 446.058 851.603C422.683 839.968 398.997 828.155 378.758 811.469C377.28 810.384 375.801 809.301 374.32 808.219C357.119 794.673 344.595 777.385 335.758 757.469C335.227 756.282 334.695 755.095 334.148 753.872C327.06 737.082 323.189 719.429 319.445 701.657C319.268 700.818 319.091 699.979 318.909 699.115C318.399 696.686 317.895 694.256 317.394 691.825C317.244 691.102 317.093 690.378 316.937 689.633C316.726 688.593 316.726 688.593 316.51 687.533C316.389 686.939 316.267 686.345 316.141 685.733C314.771 677.648 314.586 669.782 314.549 661.59C314.539 660.196 314.529 658.802 314.519 657.408C314.488 652.861 314.468 648.314 314.449 643.766C314.446 642.991 314.442 642.216 314.439 641.417C314.408 634.104 314.382 626.79 314.365 619.476C314.343 610.137 314.301 600.798 314.231 591.459C314.184 584.88 314.16 578.302 314.152 571.723C314.147 567.797 314.132 563.872 314.093 559.946C314.056 556.258 314.047 552.572 314.061 548.885C314.061 546.886 314.031 544.888 314 542.89C314.069 534.369 314.069 534.369 316.051 531.778C321.657 527.858 328.172 528.712 334.383 530.532Z" fill="#218BD1"/>
<path d="M942.683 529.086C943.775 529.058 944.866 529.029 945.991 529C950.381 529.622 952.052 530.299 955.245 533.461C956.174 537.937 956.022 542.387 955.958 546.943C955.96 548.343 955.964 549.743 955.971 551.143C955.981 554.945 955.954 558.747 955.92 562.549C955.889 566.537 955.892 570.524 955.89 574.512C955.883 581.217 955.853 587.922 955.808 594.627C955.75 603.204 955.729 611.78 955.72 620.357C955.712 627.756 955.687 635.155 955.66 642.555C955.652 644.918 955.646 647.282 955.64 649.646C955.63 653.383 955.61 657.119 955.581 660.855C955.568 662.861 955.564 664.868 955.561 666.874C955.464 677.193 954.044 686.932 951.433 696.898C950.274 701.356 949.153 705.812 948.155 710.309C941.063 742.059 929.737 770.717 908.245 795.461C907.676 796.163 907.106 796.866 906.519 797.59C882.917 826.17 841.803 842.903 808.995 858.273C782.442 870.753 757.654 886.401 736.355 906.66C734.245 908.461 734.245 908.461 732.245 908.461C732.245 909.121 732.245 909.781 732.245 910.461C730.89 911.758 730.89 911.758 729.058 913.211C725.637 916.04 723.033 919.013 720.245 922.461C719.464 923.241 718.683 924.021 717.878 924.824C703.051 939.673 691.923 957.979 682.245 976.461C681.886 977.137 681.527 977.813 681.156 978.51C674.787 990.541 669.226 1003.08 665.558 1016.21C664.185 1021.07 661.949 1024.64 658.495 1028.34C654.878 1030.14 652.273 1029.91 648.245 1029.46C645.46 1026.86 644.336 1024.05 644.117 1020.22C644.115 1019.34 644.113 1018.45 644.112 1017.54C644.107 1016.53 644.103 1015.51 644.099 1014.47C644.099 1013.35 644.1 1012.24 644.1 1011.09C644.097 1009.92 644.093 1008.74 644.09 1007.53C644.082 1004.3 644.079 1001.07 644.078 997.838C644.077 995.806 644.075 993.775 644.073 991.744C644.063 984.618 644.059 977.493 644.06 970.367C644.061 963.796 644.05 957.225 644.034 950.654C644.021 944.97 644.016 939.286 644.016 933.603C644.017 930.228 644.013 926.854 644.003 923.479C643.898 883.667 646.269 843.129 660.245 805.461C660.758 803.933 660.758 803.933 661.28 802.375C669.026 780.331 683.798 757.247 701.245 741.461C701.905 741.461 702.565 741.461 703.245 741.461C703.245 740.801 703.245 740.141 703.245 739.461C704.503 738.191 704.503 738.191 706.37 736.648C709.713 733.818 712.927 730.894 716.104 727.882C721.844 722.452 727.72 717.378 733.983 712.562C742.993 705.617 751.524 698.069 759.987 690.473C761.29 689.312 762.599 688.158 763.925 687.024C769.033 682.633 773.802 677.993 778.515 673.184C780.079 671.602 781.643 670.021 783.208 668.439C785.634 665.983 788.057 663.525 790.474 661.061C817.341 633.707 817.341 633.707 831.37 633.023C839.988 633.996 844.026 636.668 849.679 643.305C853.805 648.984 852.632 656.755 852.245 663.461C851.12 667.273 851.12 667.273 849.245 670.461C848.866 671.167 848.487 671.874 848.097 672.602C838.237 690.27 823.123 705.493 809.359 720.141C805.888 723.836 802.494 727.568 799.245 731.461C798.784 732.007 798.322 732.554 797.846 733.117C796.216 735.055 794.604 737.006 792.995 738.961C792.215 739.887 792.215 739.887 791.419 740.832C787.159 746.074 783.906 751.53 784.245 758.523C785.046 763.073 787.314 765.957 790.245 769.461C795.746 772.211 803.824 771.095 809.57 769.59C812.876 768.35 816.051 766.967 819.245 765.461C820.413 764.918 821.581 764.376 822.784 763.816C856.349 747.619 884.157 720.114 900.245 686.461C900.787 685.347 901.328 684.233 901.886 683.086C911.72 661.629 914.299 638.413 914.475 615.045C914.492 612.894 914.515 610.743 914.54 608.593C914.61 602.488 914.671 596.383 914.722 590.278C914.754 586.515 914.796 582.752 914.842 578.989C914.858 577.573 914.871 576.157 914.879 574.74C914.966 560.754 915.303 547.103 925.241 536.289C930.702 531.293 935.179 529.174 942.683 529.086Z" fill="#228DD2"/>
<path d="M510.438 367.108C526.003 366.034 540.443 373.1 552.25 382.795C561.416 391.499 569.925 404.129 570.53 417.094C570.572 419.412 570.574 421.727 570.562 424.045C570.566 424.831 570.57 425.617 570.574 426.426C570.567 430.781 570.206 434.81 569.438 439.108C568.695 449.594 569.644 455.879 575.75 464.295C577.438 467.108 577.438 467.108 577.043 469.784C576.843 470.551 576.643 471.318 576.438 472.108C561.17 473.487 561.17 473.487 554.312 468.233C553.506 467.514 552.699 466.794 551.867 466.053C547.008 462.162 542.421 461.97 536.375 461.983C529.993 461.641 529.993 461.641 527.594 459.338C526.375 457.17 526.375 457.17 525.355 454.987C524.53 452.896 524.53 452.896 522.188 451.608C512.052 449.765 502.019 452.387 493.438 458.108C488.214 458.813 483.758 458.756 479 456.42C473.475 451.434 470.962 447.151 470 439.733C470.571 435.005 472.445 431.774 475.438 428.108C479.126 425.649 482.155 425.309 486.438 426.108C491.433 429.825 494.674 435.58 497.438 441.108C505.254 442.01 510.908 439.317 517.438 435.108C523.187 430.215 526.459 423.945 529.438 417.108C529.802 416.341 530.167 415.574 530.543 414.784C532.784 408.079 532.603 399.67 530.41 392.967C527.361 387.055 523.178 382.29 518.629 377.479C515.617 374.22 513.009 370.718 510.438 367.108Z" fill="white"/>
<path d="M510.357 461.038C510.224 461.609 510.091 462.18 509.955 462.769C508.416 469.832 507.786 476.83 507.357 484.038C512.791 481.298 514.682 477.591 517.611 472.437C519.357 470.038 519.357 470.038 523.357 469.038C524.677 471.678 525.997 474.318 527.357 477.038C530.231 477.289 530.231 477.289 533.357 477.038C533.852 476.523 534.347 476.007 534.857 475.476C536.357 474.038 536.357 474.038 539.107 473.851C543.939 475.616 546.527 478.824 549.357 483.038C550.544 486.288 550.544 486.288 550.357 489.038C549.703 489.595 549.05 490.152 548.377 490.726C545.602 493.902 545.852 496.773 545.857 500.788C545.592 509.046 544.417 513.978 538.544 519.851C532.969 523.677 528.189 525.965 521.357 525.038C514.176 522.637 510.237 519.155 505.935 513.034C503.831 510.373 501.389 509.491 498.357 508.038C491.615 502.148 488.952 495.797 488.044 487.015C487.731 479.23 489.011 474.042 494.005 468.066C499.055 462.696 502.854 460.689 510.357 461.038Z" fill="white"/>
<path d="M546.655 424.023C548.063 424.012 548.063 424.012 549.499 424C552.581 424.462 553.956 425.21 556.155 427.398C556.78 430.773 556.78 430.773 556.155 434.398C553.578 437.426 551.985 438.999 548.116 439.844C544.567 440.043 542.543 439.697 539.718 437.523C537.13 434.005 536.708 431.782 537.155 427.398C540.163 424.404 542.488 423.989 546.655 424.023Z" fill="#08131E"/>
<path d="M644 1007C641.833 1019.67 656.5 1020 656.5 1020L692.5 922.5C716.667 903 765.6 863.2 768 860C770.4 856.8 796 844.333 808.5 838.5L862.5 815.5L906.5 775.5L933 730L929 731.5L915.5 741C910.228 744.71 909.794 745.961 906.5 749.5C900.406 756.046 898.445 760.905 893 768C888.433 773.951 886.404 777.797 881 783C875.26 788.526 871.133 790.585 864.5 795C852.564 802.944 832.5 813 832.5 813L808.5 824L789 832.5L760 844.5L729 864L702.5 886L676 914.5L654.5 958C654.5 958 646.167 994.333 644 1007Z" fill="url(#paint0_linear_1_542)"/>
<path d="M941.5 735.5C941.533 735.344 942.5 732 943.005 730.494C943.005 730.494 947 718 943 716C937.997 716.004 933.942 722.375 933.942 722.375C933.04 724.023 932.132 725.668 931.216 727.309L907.755 762.438C905.342 766.383 902.482 769.904 899.567 773.488L897.505 776C892.99 781.632 888.097 786.231 882.438 790.723L879.505 793C868.58 801.589 857.043 809.551 844.817 816.188C842 817.663 839.233 819.161 836.497 820.785C830.317 824.46 824.098 827.716 817.538 830.669C807.692 835.058 798.072 839.644 788.623 844.835C787.153 845.644 785.681 846.449 784.207 847.251L783.865 847.437C775.962 851.739 768.059 856.041 760.528 860.977L757.505 863C746.981 869.928 736.852 876.981 727.435 885.371C725.749 886.883 724.052 888.383 722.325 889.848C712.081 898.498 703.022 908.13 694.923 918.797C693.506 920.679 692.078 922.541 690.618 924.391C683.293 933.61 676.283 943.136 670.493 953.402C669.831 954.602 669.168 955.801 668.505 957C666.978 959.712 665.452 962.425 663.938 965.145L662.317 968.062C659.229 973.556 656.43 978.918 654.329 984.871C653.403 987.69 652.462 990.074 650.977 992.652C646.529 999.745 644.238 1006.83 644.013 1015.15L644.005 1017.56C643.993 1019.08 644.002 1020.61 644.036 1022.13L644.039 1022.15C644.491 1025.89 644.691 1027.54 647.505 1030C651.533 1030.45 654.138 1030.68 657.755 1028.88C661.209 1025.17 664.127 1021.36 665.5 1016.5C669.168 1003.36 674.542 991.58 680.911 979.549L682 977.5C691.677 959.018 702.31 940.212 717.138 925.363L719.505 923C722.293 919.552 724.896 916.579 728.317 913.75C730.149 912.297 730.149 912.297 731.505 911C732.027 910.5 732 910.5 732.5 910C733.472 909.028 733.504 909.001 735.441 907.347L735.614 907.199C756.913 886.94 781.702 871.292 808.255 858.812C841.068 843.44 882.15 826.71 905.77 798.141L907.505 796C921.201 780.071 938 752 941.5 735.5Z" fill="#162634"/>
<path d="M624.779 1006C626.946 1018.67 612.279 1019 612.279 1019L576.279 921.5C552.112 902 503.179 862.2 500.779 859C498.379 855.8 472.779 843.333 460.279 837.5L406.279 814.5L362.279 774.5L335.779 729L339.779 730.5L353.279 740C358.551 743.71 358.985 744.961 362.279 748.5C368.373 755.046 370.334 759.905 375.779 767C380.346 772.951 382.375 776.797 387.779 782C393.519 787.526 397.646 789.585 404.279 794C416.215 801.944 436.279 812 436.279 812L460.279 823L479.779 831.5L508.779 843.5L539.779 863L566.279 885L592.779 913.5L614.279 957C614.279 957 622.612 993.333 624.779 1006Z" fill="url(#paint1_linear_1_542)"/>
<path d="M327.279 734.5C327.246 734.344 326.279 731 325.774 729.494C325.774 729.494 321.779 717 325.779 715C330.782 715.004 334.837 721.375 334.837 721.375C335.739 723.023 336.647 724.668 337.563 726.309L361.024 761.438C363.437 765.383 366.297 768.904 369.212 772.488L371.274 775C375.788 780.632 380.682 785.231 386.341 789.723L389.274 792C400.199 800.589 411.735 808.551 423.962 815.188C426.779 816.663 429.546 818.161 432.282 819.785C438.462 823.46 444.681 826.716 451.241 829.669C461.087 834.058 470.707 838.644 480.156 843.835C481.626 844.644 483.098 845.449 484.572 846.251L484.914 846.437C492.817 850.739 500.72 855.041 508.251 859.977L511.274 862C521.797 868.928 531.927 875.981 541.344 884.371C543.03 885.883 544.727 887.383 546.454 888.848C556.698 897.498 565.756 907.13 573.856 917.797C575.273 919.679 576.701 921.541 578.161 923.391C585.485 932.61 592.496 942.136 598.286 952.402C598.948 953.602 599.611 954.801 600.274 956C601.801 958.712 603.327 961.425 604.841 964.145L606.462 967.062C609.55 972.556 612.349 977.918 614.45 983.871C615.376 986.69 616.317 989.074 617.801 991.652C622.25 998.745 624.541 1005.83 624.766 1014.15L624.774 1016.56C624.786 1018.08 624.777 1019.61 624.743 1021.13L624.74 1021.15C624.288 1024.89 624.088 1026.54 621.274 1029C617.246 1029.45 614.641 1029.68 611.024 1027.88C607.57 1024.17 604.652 1020.36 603.279 1015.5C599.611 1002.36 594.237 990.58 587.868 978.549L586.779 976.5C577.101 958.018 566.468 939.212 551.641 924.363L549.274 922C546.486 918.552 543.883 915.579 540.462 912.75C538.63 911.297 538.63 911.297 537.274 910C536.752 909.5 536.779 909.5 536.279 909C535.307 908.028 535.275 908.001 533.337 906.347L533.165 906.199C511.866 885.94 487.077 870.292 460.524 857.812C427.711 842.44 386.629 825.71 363.008 797.141L361.274 795C347.578 779.071 330.779 751 327.279 734.5Z" fill="#162634"/>
<path d="M711.035 425.258C712.699 426.218 714.302 427.283 715.89 428.364C716.393 433.649 715.237 436.273 711.89 440.364C708.884 442.725 705.625 442.779 701.855 442.688C698.725 442.172 697.055 440.592 694.89 438.364C692.89 435.364 692.89 435.364 693.078 431.864C694.145 427.264 694.145 427.264 696.89 425.364C701.537 423.815 706.424 423.335 711.035 425.258Z" fill="#0A1725"/>
<path d="M645.9 513.86C656.198 522.595 665.398 535.385 667.967 548.913C668.007 550.645 668.015 552.378 667.967 554.109C652.418 555.461 635.296 549.719 623.164 540.031C616.038 533.965 610.09 527.107 607.063 518.085C606.123 515.57 606.123 515.57 604.054 514.314C601.454 513.471 599.284 513.267 596.553 513.255C595.666 513.237 594.78 513.22 593.867 513.202C590.906 513.664 590.119 514.305 588.345 516.697C585.86 521.701 584.177 527.046 582.658 532.415C579.741 542.38 575.342 549.461 566.5 555.148C563.216 556.296 561.616 556.271 558.357 555.148C556.728 553.511 557.069 551.902 557 549.627C557.203 536.635 563.298 526.2 572.325 517.241C593.379 498.796 623.214 496.402 645.9 513.86Z" fill="#ECF0F3"/>
<path d="M460.56 1164.44C453.84 1164.44 447.4 1163.56 441.24 1161.8C435.08 1159.96 430.12 1157.6 426.36 1154.72L432.96 1140.08C436.56 1142.64 440.8 1144.76 445.68 1146.44C450.64 1148.04 455.64 1148.84 460.68 1148.84C464.52 1148.84 467.6 1148.48 469.92 1147.76C472.32 1146.96 474.08 1145.88 475.2 1144.52C476.32 1143.16 476.88 1141.6 476.88 1139.84C476.88 1137.6 476 1135.84 474.24 1134.56C472.48 1133.2 470.16 1132.12 467.28 1131.32C464.4 1130.44 461.2 1129.64 457.68 1128.92C454.24 1128.12 450.76 1127.16 447.24 1126.04C443.8 1124.92 440.64 1123.48 437.76 1121.72C434.88 1119.96 432.52 1117.64 430.68 1114.76C428.92 1111.88 428.04 1108.2 428.04 1103.72C428.04 1098.92 429.32 1094.56 431.88 1090.64C434.52 1086.64 438.44 1083.48 443.64 1081.16C448.92 1078.76 455.52 1077.56 463.44 1077.56C468.72 1077.56 473.92 1078.2 479.04 1079.48C484.16 1080.68 488.68 1082.52 492.6 1085L486.6 1099.76C482.68 1097.52 478.76 1095.88 474.84 1094.84C470.92 1093.72 467.08 1093.16 463.32 1093.16C459.56 1093.16 456.48 1093.6 454.08 1094.48C451.68 1095.36 449.96 1096.52 448.92 1097.96C447.88 1099.32 447.36 1100.92 447.36 1102.76C447.36 1104.92 448.24 1106.68 450 1108.04C451.76 1109.32 454.08 1110.36 456.96 1111.16C459.84 1111.96 463 1112.76 466.44 1113.56C469.96 1114.36 473.44 1115.28 476.88 1116.32C480.4 1117.36 483.6 1118.76 486.48 1120.52C489.36 1122.28 491.68 1124.6 493.44 1127.48C495.28 1130.36 496.2 1134 496.2 1138.4C496.2 1143.12 494.88 1147.44 492.24 1151.36C489.6 1155.28 485.64 1158.44 480.36 1160.84C475.16 1163.24 468.56 1164.44 460.56 1164.44ZM508.163 1163V1098.44H526.883V1163H508.163ZM517.523 1089.44C514.083 1089.44 511.283 1088.44 509.123 1086.44C506.963 1084.44 505.883 1081.96 505.883 1079C505.883 1076.04 506.963 1073.56 509.123 1071.56C511.283 1069.56 514.083 1068.56 517.523 1068.56C520.963 1068.56 523.763 1069.52 525.923 1071.44C528.083 1073.28 529.163 1075.68 529.163 1078.64C529.163 1081.76 528.083 1084.36 525.923 1086.44C523.843 1088.44 521.043 1089.44 517.523 1089.44ZM545.577 1163V1079H565.017V1147.16H607.137V1163H545.577ZM656.748 1163V1150.4L655.548 1147.64V1125.08C655.548 1121.08 654.308 1117.96 651.828 1115.72C649.428 1113.48 645.708 1112.36 640.668 1112.36C637.228 1112.36 633.828 1112.92 630.468 1114.04C627.188 1115.08 624.388 1116.52 622.068 1118.36L615.348 1105.28C618.868 1102.8 623.108 1100.88 628.068 1099.52C633.028 1098.16 638.068 1097.48 643.188 1097.48C653.028 1097.48 660.668 1099.8 666.108 1104.44C671.548 1109.08 674.268 1116.32 674.268 1126.16V1163H656.748ZM637.068 1163.96C632.028 1163.96 627.708 1163.12 624.108 1161.44C620.508 1159.68 617.748 1157.32 615.828 1154.36C613.908 1151.4 612.948 1148.08 612.948 1144.4C612.948 1140.56 613.868 1137.2 615.708 1134.32C617.628 1131.44 620.628 1129.2 624.708 1127.6C628.788 1125.92 634.108 1125.08 640.668 1125.08H657.828V1136H642.708C638.308 1136 635.268 1136.72 633.588 1138.16C631.988 1139.6 631.188 1141.4 631.188 1143.56C631.188 1145.96 632.108 1147.88 633.948 1149.32C635.868 1150.68 638.468 1151.36 641.748 1151.36C644.868 1151.36 647.668 1150.64 650.148 1149.2C652.628 1147.68 654.428 1145.48 655.548 1142.6L658.428 1151.24C657.068 1155.4 654.588 1158.56 650.988 1160.72C647.388 1162.88 642.748 1163.96 637.068 1163.96ZM692.53 1163V1079H733.57C744.13 1079 752.05 1081 757.33 1085C762.69 1089 765.37 1094.28 765.37 1100.84C765.37 1105.24 764.29 1109.08 762.13 1112.36C759.97 1115.56 757.01 1118.04 753.25 1119.8C749.49 1121.56 745.17 1122.44 740.29 1122.44L742.57 1117.52C747.85 1117.52 752.53 1118.4 756.61 1120.16C760.69 1121.84 763.85 1124.36 766.09 1127.72C768.41 1131.08 769.57 1135.2 769.57 1140.08C769.57 1147.28 766.73 1152.92 761.05 1157C755.37 1161 747.01 1163 735.97 1163H692.53ZM711.85 1148.36H734.53C739.57 1148.36 743.37 1147.56 745.93 1145.96C748.57 1144.28 749.89 1141.64 749.89 1138.04C749.89 1134.52 748.57 1131.92 745.93 1130.24C743.37 1128.48 739.57 1127.6 734.53 1127.6H710.41V1113.44H731.17C735.89 1113.44 739.49 1112.64 741.97 1111.04C744.53 1109.36 745.81 1106.84 745.81 1103.48C745.81 1100.2 744.53 1097.76 741.97 1096.16C739.49 1094.48 735.89 1093.64 731.17 1093.64H711.85V1148.36ZM822.568 1163V1150.4L821.368 1147.64V1125.08C821.368 1121.08 820.128 1117.96 817.648 1115.72C815.248 1113.48 811.528 1112.36 806.488 1112.36C803.048 1112.36 799.648 1112.92 796.288 1114.04C793.008 1115.08 790.208 1116.52 787.888 1118.36L781.168 1105.28C784.688 1102.8 788.928 1100.88 793.888 1099.52C798.848 1098.16 803.888 1097.48 809.008 1097.48C818.848 1097.48 826.488 1099.8 831.928 1104.44C837.368 1109.08 840.088 1116.32 840.088 1126.16V1163H822.568ZM802.888 1163.96C797.848 1163.96 793.528 1163.12 789.928 1161.44C786.328 1159.68 783.568 1157.32 781.648 1154.36C779.728 1151.4 778.768 1148.08 778.768 1144.4C778.768 1140.56 779.688 1137.2 781.528 1134.32C783.448 1131.44 786.448 1129.2 790.528 1127.6C794.608 1125.92 799.928 1125.08 806.488 1125.08H823.648V1136H808.528C804.128 1136 801.088 1136.72 799.408 1138.16C797.808 1139.6 797.008 1141.4 797.008 1143.56C797.008 1145.96 797.928 1147.88 799.768 1149.32C801.688 1150.68 804.288 1151.36 807.568 1151.36C810.688 1151.36 813.488 1150.64 815.968 1149.2C818.448 1147.68 820.248 1145.48 821.368 1142.6L824.248 1151.24C822.888 1155.4 820.408 1158.56 816.808 1160.72C813.208 1162.88 808.568 1163.96 802.888 1163.96Z" fill="#152534"/>
<defs>
<linearGradient id="paint0_linear_1_542" x1="914.5" y1="696" x2="753.5" y2="896.5" gradientUnits="userSpaceOnUse">
<stop stop-color="#228DD2"/>
<stop offset="1" stop-color="#226DB0"/>
</linearGradient>
<linearGradient id="paint1_linear_1_542" x1="354.279" y1="695" x2="515.279" y2="895.5" gradientUnits="userSpaceOnUse">
<stop stop-color="#228DD2"/>
<stop offset="1" stop-color="#226DB0"/>
</linearGradient>
</defs>
</svg>
